<mxfile host="Electron" agent="Mozilla/5.0 (Windows NT 10.0; Win64; x64) AppleWebKit/537.36 (KHTML, like Gecko) draw.io/27.0.9 Chrome/134.0.6998.205 Electron/35.4.0 Safari/537.36" version="27.0.9">
  <diagram name="Page-1" id="1hs5s9o86z9CkmKRlvlU">
    <mxGraphModel dx="870" dy="750" grid="0" gridSize="10" guides="1" tooltips="1" connect="1" arrows="1" fold="1" page="1" pageScale="1" pageWidth="827" pageHeight="1169" math="0" shadow="0">
      <root>
        <mxCell id="0" />
        <mxCell id="1" parent="0" />
        <mxCell id="I0ktNqdPBNF-2-9c5bUB-1" value="" style="rounded=0;whiteSpace=wrap;html=1;movable=1;resizable=1;rotatable=1;deletable=1;editable=1;locked=0;connectable=1;" parent="1" vertex="1">
          <mxGeometry x="166" y="134" width="474" height="615" as="geometry" />
        </mxCell>
        <mxCell id="m7XsVHhVL0BLHQTgYPTq-6" value="" style="shape=ellipse;container=1;horizontal=1;horizontalStack=0;resizeParent=1;resizeParentMax=0;resizeLast=0;html=1;dashed=0;collapsible=0;" parent="1" vertex="1">
          <mxGeometry x="483" y="195" width="120" height="50" as="geometry" />
        </mxCell>
        <mxCell id="m7XsVHhVL0BLHQTgYPTq-7" value="login" style="html=1;strokeColor=none;fillColor=none;align=center;verticalAlign=middle;rotatable=0;whiteSpace=wrap;" parent="m7XsVHhVL0BLHQTgYPTq-6" vertex="1">
          <mxGeometry x="-5.8" y="18.75" width="120" height="12.5" as="geometry" />
        </mxCell>
        <mxCell id="m7XsVHhVL0BLHQTgYPTq-11" value="" style="shape=ellipse;container=1;horizontal=1;horizontalStack=0;resizeParent=1;resizeParentMax=0;resizeLast=0;html=1;dashed=0;collapsible=0;" parent="1" vertex="1">
          <mxGeometry x="479" y="248" width="120" height="50" as="geometry" />
        </mxCell>
        <mxCell id="m7XsVHhVL0BLHQTgYPTq-12" value="logout" style="html=1;strokeColor=none;fillColor=none;align=center;verticalAlign=middle;rotatable=0;whiteSpace=wrap;" parent="m7XsVHhVL0BLHQTgYPTq-11" vertex="1">
          <mxGeometry y="18.75" width="120" height="12.5" as="geometry" />
        </mxCell>
        <mxCell id="m7XsVHhVL0BLHQTgYPTq-45" value="&quot;include&quot;" style="endArrow=classic;html=1;rounded=0;entryX=0;entryY=1;entryDx=0;entryDy=0;endFill=1;exitX=1;exitY=0.5;exitDx=0;exitDy=0;dashed=1;dashPattern=8 8;" parent="1" target="m7XsVHhVL0BLHQTgYPTq-7" edge="1" source="6f_xj8bAMljaduBOYO8J-6">
          <mxGeometry width="50" height="50" relative="1" as="geometry">
            <mxPoint x="110" y="324" as="sourcePoint" />
            <mxPoint x="473" y="257" as="targetPoint" />
          </mxGeometry>
        </mxCell>
        <mxCell id="m7XsVHhVL0BLHQTgYPTq-46" value="&quot;include&quot;" style="endArrow=classic;html=1;rounded=0;entryX=0;entryY=0.5;entryDx=0;entryDy=0;endFill=1;exitX=1;exitY=1;exitDx=0;exitDy=0;dashed=1;dashPattern=8 8;" parent="1" target="m7XsVHhVL0BLHQTgYPTq-12" edge="1" source="6f_xj8bAMljaduBOYO8J-6">
          <mxGeometry width="50" height="50" relative="1" as="geometry">
            <mxPoint x="122" y="338" as="sourcePoint" />
            <mxPoint x="427" y="247" as="targetPoint" />
          </mxGeometry>
        </mxCell>
        <mxCell id="m7XsVHhVL0BLHQTgYPTq-150" value="" style="shape=ellipse;container=1;horizontal=1;horizontalStack=0;resizeParent=1;resizeParentMax=0;resizeLast=0;html=1;dashed=0;collapsible=0;" parent="1" vertex="1">
          <mxGeometry x="487" y="405" width="134.29" height="45" as="geometry" />
        </mxCell>
        <mxCell id="m7XsVHhVL0BLHQTgYPTq-151" value="exportation vers PG depuis&amp;nbsp;&lt;span style=&quot;background-color: transparent; color: light-dark(rgb(0, 0, 0), rgb(255, 255, 255));&quot;&gt;sql lite&lt;/span&gt;" style="html=1;strokeColor=none;fillColor=none;align=center;verticalAlign=middle;rotatable=0;whiteSpace=wrap;" parent="m7XsVHhVL0BLHQTgYPTq-150" vertex="1">
          <mxGeometry x="0.0017841666666660316" y="16.877225274725273" width="134.29" height="11.25" as="geometry" />
        </mxCell>
        <mxCell id="m7XsVHhVL0BLHQTgYPTq-152" value="" style="endArrow=none;html=1;rounded=0;entryX=0.027;entryY=0.333;entryDx=0;entryDy=0;endFill=0;entryPerimeter=0;" parent="1" source="m7XsVHhVL0BLHQTgYPTq-154" target="6f_xj8bAMljaduBOYO8J-13" edge="1">
          <mxGeometry width="50" height="50" relative="1" as="geometry">
            <mxPoint x="92" y="413" as="sourcePoint" />
            <mxPoint x="716" y="644" as="targetPoint" />
            <Array as="points" />
          </mxGeometry>
        </mxCell>
        <mxCell id="m7XsVHhVL0BLHQTgYPTq-154" value="responsable&amp;nbsp;" style="shape=umlActor;verticalLabelPosition=bottom;verticalAlign=top;html=1;outlineConnect=0;" parent="1" vertex="1">
          <mxGeometry x="71" y="326" width="30" height="60" as="geometry" />
        </mxCell>
        <mxCell id="m7XsVHhVL0BLHQTgYPTq-161" value="" style="shape=ellipse;container=1;horizontal=1;horizontalStack=0;resizeParent=1;resizeParentMax=0;resizeLast=0;html=1;dashed=0;collapsible=0;" parent="1" vertex="1">
          <mxGeometry x="381.0000000000001" y="614" width="120" height="60" as="geometry" />
        </mxCell>
        <mxCell id="m7XsVHhVL0BLHQTgYPTq-162" value="publier sur la vitrine web" style="html=1;strokeColor=none;fillColor=none;align=center;verticalAlign=middle;rotatable=0;whiteSpace=wrap;" parent="m7XsVHhVL0BLHQTgYPTq-161" vertex="1">
          <mxGeometry x="3.29" y="22.50142857142857" width="120" height="15" as="geometry" />
        </mxCell>
        <mxCell id="m7XsVHhVL0BLHQTgYPTq-163" value="" style="endArrow=none;html=1;rounded=0;entryX=0;entryY=0.5;entryDx=0;entryDy=0;endFill=0;" parent="1" source="m7XsVHhVL0BLHQTgYPTq-182" target="m7XsVHhVL0BLHQTgYPTq-161" edge="1">
          <mxGeometry width="50" height="50" relative="1" as="geometry">
            <mxPoint x="82" y="546" as="sourcePoint" />
            <mxPoint x="733.58" y="854" as="targetPoint" />
            <Array as="points">
              <mxPoint x="257" y="674" />
            </Array>
          </mxGeometry>
        </mxCell>
        <mxCell id="m7XsVHhVL0BLHQTgYPTq-175" value="" style="shape=ellipse;container=1;horizontal=1;horizontalStack=0;resizeParent=1;resizeParentMax=0;resizeLast=0;html=1;dashed=0;collapsible=0;" parent="1" vertex="1">
          <mxGeometry x="489.85" y="322" width="134.29" height="41" as="geometry" />
        </mxCell>
        <mxCell id="m7XsVHhVL0BLHQTgYPTq-176" value="importation PG vers&lt;div&gt;&amp;nbsp;sql lite&lt;/div&gt;" style="html=1;strokeColor=none;fillColor=none;align=center;verticalAlign=middle;rotatable=0;whiteSpace=wrap;" parent="m7XsVHhVL0BLHQTgYPTq-175" vertex="1">
          <mxGeometry x="3.001784166666666" y="17.997027472527474" width="134.29" height="10.25" as="geometry" />
        </mxCell>
        <mxCell id="m7XsVHhVL0BLHQTgYPTq-179" value="postgresql site 2 vers sqllite site 3" style="rounded=0;whiteSpace=wrap;html=1;" parent="1" vertex="1">
          <mxGeometry x="661" y="318" width="120" height="60" as="geometry" />
        </mxCell>
        <mxCell id="m7XsVHhVL0BLHQTgYPTq-180" value="sql lite site 3 vers postgresql site 2" style="rounded=0;whiteSpace=wrap;html=1;" parent="1" vertex="1">
          <mxGeometry x="657" y="423.38" width="120" height="60" as="geometry" />
        </mxCell>
        <mxCell id="m7XsVHhVL0BLHQTgYPTq-181" value="postgresql site 2 vers vitrine web (automatique ou manuel)" style="rounded=0;whiteSpace=wrap;html=1;" parent="1" vertex="1">
          <mxGeometry x="661" y="658" width="120" height="60" as="geometry" />
        </mxCell>
        <mxCell id="m7XsVHhVL0BLHQTgYPTq-182" value="serveur proxmox" style="shape=umlActor;verticalLabelPosition=bottom;verticalAlign=top;html=1;outlineConnect=0;" parent="1" vertex="1">
          <mxGeometry x="71" y="605" width="30" height="61" as="geometry" />
        </mxCell>
        <mxCell id="m7XsVHhVL0BLHQTgYPTq-183" value="" style="endArrow=none;dashed=1;html=1;rounded=0;exitX=0.775;exitY=0.95;exitDx=0;exitDy=0;exitPerimeter=0;entryX=0;entryY=0.5;entryDx=0;entryDy=0;" parent="1" source="m7XsVHhVL0BLHQTgYPTq-161" target="m7XsVHhVL0BLHQTgYPTq-181" edge="1">
          <mxGeometry width="50" height="50" relative="1" as="geometry">
            <mxPoint x="134" y="634" as="sourcePoint" />
            <mxPoint x="514" y="663" as="targetPoint" />
          </mxGeometry>
        </mxCell>
        <mxCell id="m7XsVHhVL0BLHQTgYPTq-184" value="" style="endArrow=none;dashed=1;html=1;rounded=0;exitX=1;exitY=1;exitDx=0;exitDy=0;entryX=0;entryY=0.25;entryDx=0;entryDy=0;" parent="1" source="m7XsVHhVL0BLHQTgYPTq-151" target="m7XsVHhVL0BLHQTgYPTq-180" edge="1">
          <mxGeometry width="50" height="50" relative="1" as="geometry">
            <mxPoint x="497" y="482" as="sourcePoint" />
            <mxPoint x="547" y="432" as="targetPoint" />
          </mxGeometry>
        </mxCell>
        <mxCell id="m7XsVHhVL0BLHQTgYPTq-185" value="" style="endArrow=none;dashed=1;html=1;rounded=0;entryX=0;entryY=0.25;entryDx=0;entryDy=0;exitX=0.848;exitY=0.169;exitDx=0;exitDy=0;exitPerimeter=0;" parent="1" source="m7XsVHhVL0BLHQTgYPTq-175" target="m7XsVHhVL0BLHQTgYPTq-179" edge="1">
          <mxGeometry width="50" height="50" relative="1" as="geometry">
            <mxPoint x="134" y="501" as="sourcePoint" />
            <mxPoint x="184" y="451" as="targetPoint" />
          </mxGeometry>
        </mxCell>
        <mxCell id="m7XsVHhVL0BLHQTgYPTq-186" value="" style="shape=ellipse;container=1;horizontal=1;horizontalStack=0;resizeParent=1;resizeParentMax=0;resizeLast=0;html=1;dashed=0;collapsible=0;" parent="1" vertex="1">
          <mxGeometry x="369.85000000000014" y="545" width="120" height="60" as="geometry" />
        </mxCell>
        <mxCell id="m7XsVHhVL0BLHQTgYPTq-187" value="sauvegarder postgresql" style="html=1;strokeColor=none;fillColor=none;align=center;verticalAlign=middle;rotatable=0;whiteSpace=wrap;" parent="m7XsVHhVL0BLHQTgYPTq-186" vertex="1">
          <mxGeometry x="3.29" y="22.50142857142857" width="120" height="15" as="geometry" />
        </mxCell>
        <mxCell id="m7XsVHhVL0BLHQTgYPTq-188" value="" style="endArrow=none;html=1;rounded=0;entryX=0;entryY=0.5;entryDx=0;entryDy=0;endFill=0;" parent="1" source="m7XsVHhVL0BLHQTgYPTq-182" target="m7XsVHhVL0BLHQTgYPTq-186" edge="1">
          <mxGeometry width="50" height="50" relative="1" as="geometry">
            <mxPoint x="97" y="776" as="sourcePoint" />
            <mxPoint x="729.58" y="991" as="targetPoint" />
            <Array as="points" />
          </mxGeometry>
        </mxCell>
        <mxCell id="m7XsVHhVL0BLHQTgYPTq-189" value="" style="endArrow=none;html=1;rounded=0;endFill=0;" parent="1" source="m7XsVHhVL0BLHQTgYPTq-154" target="m7XsVHhVL0BLHQTgYPTq-186" edge="1">
          <mxGeometry width="50" height="50" relative="1" as="geometry">
            <mxPoint x="219" y="501" as="sourcePoint" />
            <mxPoint x="269" y="451" as="targetPoint" />
          </mxGeometry>
        </mxCell>
        <mxCell id="I0ktNqdPBNF-2-9c5bUB-2" value="&lt;font&gt;gestion des base de données - import/export&lt;/font&gt;" style="text;html=1;align=center;verticalAlign=middle;whiteSpace=wrap;rounded=0;fontSize=16;fontStyle=1" parent="1" vertex="1">
          <mxGeometry x="179" y="155" width="275.58" height="30" as="geometry" />
        </mxCell>
        <mxCell id="6f_xj8bAMljaduBOYO8J-1" value="sauvegarder les log dans postgresql" style="rounded=0;whiteSpace=wrap;html=1;" vertex="1" parent="1">
          <mxGeometry x="665" y="199" width="120" height="60" as="geometry" />
        </mxCell>
        <mxCell id="6f_xj8bAMljaduBOYO8J-4" value="" style="endArrow=none;dashed=1;html=1;rounded=0;entryX=-0.012;entryY=0.383;entryDx=0;entryDy=0;entryPerimeter=0;" edge="1" parent="1" target="6f_xj8bAMljaduBOYO8J-1">
          <mxGeometry width="50" height="50" relative="1" as="geometry">
            <mxPoint x="605" y="222" as="sourcePoint" />
            <mxPoint x="386" y="387" as="targetPoint" />
          </mxGeometry>
        </mxCell>
        <mxCell id="6f_xj8bAMljaduBOYO8J-5" value="" style="endArrow=none;dashed=1;html=1;rounded=0;entryX=-0.025;entryY=0.637;entryDx=0;entryDy=0;entryPerimeter=0;" edge="1" parent="1" target="6f_xj8bAMljaduBOYO8J-1">
          <mxGeometry width="50" height="50" relative="1" as="geometry">
            <mxPoint x="598" y="257" as="sourcePoint" />
            <mxPoint x="613" y="261" as="targetPoint" />
          </mxGeometry>
        </mxCell>
        <mxCell id="6f_xj8bAMljaduBOYO8J-6" value="authentifier" style="ellipse;whiteSpace=wrap;html=1;" vertex="1" parent="1">
          <mxGeometry x="202" y="210" width="120" height="33" as="geometry" />
        </mxCell>
        <mxCell id="6f_xj8bAMljaduBOYO8J-8" value="&quot;include&quot;" style="endArrow=classic;html=1;rounded=0;exitX=0.375;exitY=0.038;exitDx=0;exitDy=0;exitPerimeter=0;dashed=1;dashPattern=8 8;" edge="1" parent="1" source="6f_xj8bAMljaduBOYO8J-13">
          <mxGeometry x="-0.4106" y="-13" width="50" height="50" relative="1" as="geometry">
            <mxPoint x="202" y="326" as="sourcePoint" />
            <mxPoint x="251" y="242" as="targetPoint" />
            <Array as="points" />
            <mxPoint as="offset" />
          </mxGeometry>
        </mxCell>
        <mxCell id="6f_xj8bAMljaduBOYO8J-10" value="&quot;include&quot;" style="endArrow=classic;html=1;rounded=0;exitX=0.313;exitY=0.067;exitDx=0;exitDy=0;exitPerimeter=0;dashed=1;dashPattern=8 8;entryX=0.208;entryY=0.96;entryDx=0;entryDy=0;entryPerimeter=0;" edge="1" parent="1" target="6f_xj8bAMljaduBOYO8J-6">
          <mxGeometry x="-0.7426" y="-16" width="50" height="50" relative="1" as="geometry">
            <mxPoint x="369.85" y="557" as="sourcePoint" />
            <mxPoint x="215.85" y="460" as="targetPoint" />
            <Array as="points">
              <mxPoint x="260.85" y="557" />
            </Array>
            <mxPoint as="offset" />
          </mxGeometry>
        </mxCell>
        <mxCell id="6f_xj8bAMljaduBOYO8J-12" value="&quot;include&quot;" style="endArrow=classic;html=1;rounded=0;dashed=1;dashPattern=8 8;" edge="1" parent="1">
          <mxGeometry x="-0.7426" y="-16" width="50" height="50" relative="1" as="geometry">
            <mxPoint x="386" y="630" as="sourcePoint" />
            <mxPoint x="217" y="243" as="targetPoint" />
            <Array as="points">
              <mxPoint x="224.43" y="630" />
            </Array>
            <mxPoint as="offset" />
          </mxGeometry>
        </mxCell>
        <mxCell id="6f_xj8bAMljaduBOYO8J-13" value="synchroniser bdd" style="ellipse;whiteSpace=wrap;html=1;" vertex="1" parent="1">
          <mxGeometry x="261" y="346" width="120" height="40" as="geometry" />
        </mxCell>
        <mxCell id="6f_xj8bAMljaduBOYO8J-14" value="&quot;extend&quot;" style="endArrow=classic;html=1;rounded=0;entryX=0;entryY=0.5;entryDx=0;entryDy=0;exitX=0.945;exitY=0.234;exitDx=0;exitDy=0;exitPerimeter=0;dashed=1;dashPattern=8 8;" edge="1" parent="1" source="6f_xj8bAMljaduBOYO8J-13" target="m7XsVHhVL0BLHQTgYPTq-175">
          <mxGeometry width="50" height="50" relative="1" as="geometry">
            <mxPoint x="389" y="389" as="sourcePoint" />
            <mxPoint x="439" y="339" as="targetPoint" />
          </mxGeometry>
        </mxCell>
        <mxCell id="6f_xj8bAMljaduBOYO8J-16" value="&quot;extend&quot;" style="endArrow=classic;html=1;rounded=0;entryX=0.052;entryY=0.322;entryDx=0;entryDy=0;exitX=0.942;exitY=0.738;exitDx=0;exitDy=0;exitPerimeter=0;dashed=1;dashPattern=8 8;entryPerimeter=0;" edge="1" parent="1" source="6f_xj8bAMljaduBOYO8J-13" target="m7XsVHhVL0BLHQTgYPTq-150">
          <mxGeometry width="50" height="50" relative="1" as="geometry">
            <mxPoint x="432" y="383" as="sourcePoint" />
            <mxPoint x="548" y="391" as="targetPoint" />
          </mxGeometry>
        </mxCell>
        <mxCell id="6f_xj8bAMljaduBOYO8J-17" value="sauvegarde manuelle ou automatique" style="rounded=0;whiteSpace=wrap;html=1;" vertex="1" parent="1">
          <mxGeometry x="661" y="535" width="120" height="60" as="geometry" />
        </mxCell>
        <mxCell id="6f_xj8bAMljaduBOYO8J-19" value="" style="endArrow=none;dashed=1;html=1;rounded=0;entryX=0;entryY=0.25;entryDx=0;entryDy=0;exitX=0.885;exitY=0.208;exitDx=0;exitDy=0;exitPerimeter=0;" edge="1" parent="1" source="m7XsVHhVL0BLHQTgYPTq-186" target="6f_xj8bAMljaduBOYO8J-17">
          <mxGeometry width="50" height="50" relative="1" as="geometry">
            <mxPoint x="529.14" y="590" as="sourcePoint" />
            <mxPoint x="579.14" y="540" as="targetPoint" />
          </mxGeometry>
        </mxCell>
      </root>
    </mxGraphModel>
  </diagram>
</mxfile>
